<svg width="1440" height="768" viewBox="0 0 1440 768" fill="none" xmlns="http://www.w3.org/2000/svg">
<mask id="mask0_2_13491" style="mask-type:alpha" maskUnits="userSpaceOnUse" x="0" y="0" width="1440" height="739">
<path d="M0 0H1440V393.858C1440 493.684 1366.39 578.224 1267.51 591.956L227.513 736.401C107.271 753.101 0 659.699 0 538.302V0Z" fill="#B5D0F1"/>
</mask>
<g mask="url(#mask0_2_13491)">
<path opacity="0.06" d="M728.446 31.072C779.947 -58.1295 749.384 -172.191 660.183 -223.692C570.981 -275.192 456.919 -244.63 405.419 -155.428L101.25 371.408C49.7494 460.61 80.3122 574.671 169.514 626.172C258.715 677.672 372.777 647.109 424.277 557.908L728.446 31.072Z" fill="white"/>
<path opacity="0.08" d="M685.154 12.3687C723.722 -54.4338 700.834 -139.854 634.032 -178.422C567.229 -216.991 481.809 -194.102 443.241 -127.3L143.05 392.646C104.482 459.448 127.37 544.868 194.172 583.437C260.975 622.005 346.395 599.117 384.963 532.314L685.154 12.3687Z" fill="url(#paint0_linear_2_13491)"/>
</g>
<defs>
<linearGradient id="paint0_linear_2_13491" x1="654.37" y1="-142.695" x2="85.2875" y2="-150.665" gradientUnits="userSpaceOnUse">
<stop stop-color="#E5EDF8" stop-opacity="0.47"/>
<stop offset="1" stop-color="#EDF2F8"/>
</linearGradient>
</defs>
</svg>
